<svg fill="#000000" version="1.1" id="Layer_1" xmlns="http://www.w3.org/2000/svg" xmlns:xlink="http://www.w3.org/1999/xlink" viewBox="0 0 512 512" xml:space="preserve" width="64px" height="64px" stroke="#000000">

<g id="SVGRepo_bgCarrier" stroke-width="0"/>

<g id="SVGRepo_tracerCarrier" stroke-linecap="round" stroke-linejoin="round" stroke="#CCCCCC" stroke-width="1.024"/>

<g id="SVGRepo_iconCarrier"> <g> <g> <rect x="48.02" y="147.407" width="30.431" height="256.816"/> </g> </g> <g> <g> <rect x="146.281" y="100.696" width="44.365" height="30.431"/> </g> </g> <g> <g> <rect x="146.281" y="142.68" width="44.365" height="30.431"/> </g> </g> <g> <g> <rect x="255.548" y="339.334" width="63.448" height="30.431"/> </g> </g> <g> <g> <rect x="255.548" y="381.329" width="63.448" height="30.431"/> </g> </g> <g> <g> <path d="M447.308,115.809l-83.242,16.558V81.096H240.895V48.204H96.041v39.638H0v375.955h96.041h30.431h83.992h30.431h123.171 V282.813l35.905,180.511L512,441.039L447.308,115.809z M96.041,433.366h-65.61V118.273h65.61V433.366z M210.464,433.366h-83.992 V225.6h83.992V433.366z M210.464,81.096v114.073h-83.992V87.842v-9.207h83.992V81.096z M333.636,433.366h-92.74V111.527h92.74 V433.366z M423.881,427.54l-52.819-265.538l11.245-2.237l52.819,265.538L423.881,427.54z M412.153,153.829l11.245-2.237 l52.82,265.538l-11.246,2.237L412.153,153.829z"/> </g> </g> </g>

</svg>